<svg width="47" height="64" viewBox="0 0 47 64" fill="none" xmlns="http://www.w3.org/2000/svg">
<path d="M46.3448 64H4.41379L0 59.5862V0H41.931L46.3448 4.41379V64Z" fill="#F5C145"/>
<path d="M37.5172 19.8622H8.82751C8.21813 19.8622 7.72406 19.3681 7.72406 18.7587C7.72406 18.1493 8.21813 17.6553 8.82751 17.6553H37.5172C38.1265 17.6553 38.6206 18.1493 38.6206 18.7587C38.6206 19.3681 38.1265 19.8622 37.5172 19.8622Z" fill="white" fill-opacity="0.56"/>
<path d="M37.5171 26.4825H8.82748C8.2181 26.4825 7.72403 25.9885 7.72403 25.3791C7.72403 24.7697 8.2181 24.2756 8.82748 24.2756H37.5171C38.1265 24.2756 38.6206 24.7697 38.6206 25.3791C38.6206 25.9885 38.1265 26.4825 37.5171 26.4825Z" fill="white" fill-opacity="0.56"/>
<path d="M37.5171 33.1034H8.82748C8.2181 33.1034 7.72403 32.6093 7.72403 31.9999C7.72403 31.3906 8.2181 30.8965 8.82748 30.8965H37.5171C38.1265 30.8965 38.6206 31.3906 38.6206 31.9999C38.6206 32.6093 38.1265 33.1034 37.5171 33.1034Z" fill="white" fill-opacity="0.56"/>
<path d="M37.5171 39.7242H8.82748C8.2181 39.7242 7.72403 39.2302 7.72403 38.6208C7.72403 38.0114 8.2181 37.5173 8.82748 37.5173H37.5171C38.1265 37.5173 38.6206 38.0114 38.6206 38.6208C38.6206 39.2302 38.1265 39.7242 37.5171 39.7242Z" fill="white" fill-opacity="0.56"/>
<path d="M37.5171 26.4825H8.82748C8.2181 26.4825 7.72403 25.9885 7.72403 25.3791C7.72403 24.7697 8.2181 24.2756 8.82748 24.2756H37.5171C38.1265 24.2756 38.6206 24.7697 38.6206 25.3791C38.6206 25.9885 38.1265 26.4825 37.5171 26.4825Z" fill="white" fill-opacity="0.56"/>
<path d="M37.5171 33.1034H8.82748C8.2181 33.1034 7.72403 32.6093 7.72403 31.9999C7.72403 31.3906 8.2181 30.8965 8.82748 30.8965H37.5171C38.1265 30.8965 38.6206 31.3906 38.6206 31.9999C38.6206 32.6093 38.1265 33.1034 37.5171 33.1034Z" fill="white" fill-opacity="0.56"/>
<path d="M37.5171 39.7242H8.82748C8.2181 39.7242 7.72403 39.2302 7.72403 38.6208C7.72403 38.0114 8.2181 37.5173 8.82748 37.5173H37.5171C38.1265 37.5173 38.6206 38.0114 38.6206 38.6208C38.6206 39.2302 38.1265 39.7242 37.5171 39.7242Z" fill="white" fill-opacity="0.56"/>
<path d="M37.5171 46.3448H8.82748C8.2181 46.3448 7.72403 45.8508 7.72403 45.2414C7.72403 44.632 8.2181 44.1379 8.82748 44.1379H37.5171C38.1265 44.1379 38.6206 44.632 38.6206 45.2414C38.6206 45.8508 38.1265 46.3448 37.5171 46.3448Z" fill="white" fill-opacity="0.56"/>
<path d="M37.5171 33.1034H8.82748C8.2181 33.1034 7.72403 32.6093 7.72403 31.9999C7.72403 31.3906 8.2181 30.8965 8.82748 30.8965H37.5171C38.1265 30.8965 38.6206 31.3906 38.6206 31.9999C38.6206 32.6093 38.1265 33.1034 37.5171 33.1034Z" fill="white" fill-opacity="0.56"/>
<path d="M37.5171 39.7242H8.82748C8.2181 39.7242 7.72403 39.2302 7.72403 38.6208C7.72403 38.0114 8.2181 37.5173 8.82748 37.5173H37.5171C38.1265 37.5173 38.6206 38.0114 38.6206 38.6208C38.6206 39.2302 38.1265 39.7242 37.5171 39.7242Z" fill="white" fill-opacity="0.56"/>
<path d="M37.5171 46.3448H8.82748C8.2181 46.3448 7.72403 45.8508 7.72403 45.2414C7.72403 44.632 8.2181 44.1379 8.82748 44.1379H37.5171C38.1265 44.1379 38.6206 44.632 38.6206 45.2414C38.6206 45.8508 38.1265 46.3448 37.5171 46.3448Z" fill="white" fill-opacity="0.56"/>
<path d="M37.5171 52.9654H8.82748C8.2181 52.9654 7.72403 52.4714 7.72403 51.862C7.72403 51.2526 8.2181 50.7585 8.82748 50.7585H37.5171C38.1265 50.7585 38.6206 51.2526 38.6206 51.862C38.6206 52.4714 38.1265 52.9654 37.5171 52.9654Z" fill="white" fill-opacity="0.56"/>
<path d="M46.3448 14.3448L32 0V14.3448H46.3448Z" fill="#F5C145"/>
<path d="M23.1723 14.3451C25.0006 14.3451 26.4827 12.863 26.4827 11.0347C26.4827 9.20646 25.0006 7.72437 23.1723 7.72437C21.3441 7.72437 19.862 9.20646 19.862 11.0347C19.862 12.863 21.3441 14.3451 23.1723 14.3451Z" fill="white"/>
</svg>
