<svg width="40" height="40" viewBox="0 0 40 40" fill="none" xmlns="http://www.w3.org/2000/svg">
<path d="M33.5999 10H2.40001C1.07445 10 0 8.92555 0 7.59999C0 6.27443 1.07445 5.19998 2.40001 5.19998H33.6V10H33.5999Z" fill="#E5E5E5"/>
<path d="M0 14.8V34.8C0 36.1255 1.07445 37.2 2.40001 37.2H37.6V9.99995H2.40001C1.07445 9.99995 0 8.92551 0 7.59995V14.8Z" fill="#F5C145"/>
<path d="M35.2001 18.8H38.4001C39.2841 18.8 40.0001 19.5161 40.0001 20.4001V26.8001C40.0001 27.6841 39.2841 28.4001 38.4001 28.4001H26.4001C23.7489 28.4001 21.6001 26.2513 21.6001 23.6001C21.6001 20.9488 23.7489 18.8 26.4001 18.8H35.2001Z" fill="#E5E5E5"/>
<path d="M26.3998 25.2C27.2835 25.2 27.9998 24.4837 27.9998 23.6C27.9998 22.7163 27.2835 22 26.3998 22C25.5162 22 24.7998 22.7163 24.7998 23.6C24.7998 24.4837 25.5162 25.2 26.3998 25.2Z" fill="#F5C145"/>
</svg>
