<svg width="40" height="40" viewBox="0 0 40 40" fill="none" xmlns="http://www.w3.org/2000/svg">
<path d="M26.4181 0H5.68807C5.11092 0 4.64307 0.467857 4.64307 1.37571V39.2857C4.64307 39.5321 5.11092 40 5.68807 40H34.3124C34.8895 40 35.3574 39.5321 35.3574 39.2857V9.27C35.3574 8.77286 35.2909 8.61286 35.1738 8.495L26.8624 0.183571C26.7445 0.0664286 26.5845 0 26.4181 0Z" fill="#E5E5E5"/>
<path d="M26.7861 0.107941V8.57151H35.2497L26.7861 0.107941Z" fill="#D9D7CA"/>
<path d="M13.9389 23.8029C13.6903 23.8029 13.4517 23.7222 13.2482 23.57C12.5046 23.0122 12.4046 22.3915 12.4517 21.9686C12.5817 20.8058 14.0196 19.5886 16.7267 18.3486C17.801 15.9943 18.8232 13.0936 19.4324 10.67C18.7196 9.11861 18.0267 7.10576 18.5317 5.92504C18.7089 5.51147 18.9296 5.19433 19.3417 5.05718C19.5046 5.0029 19.916 4.93433 20.0674 4.93433C20.4274 4.93433 20.7439 5.3979 20.9682 5.68361C21.1789 5.95218 21.6567 6.52147 20.7017 10.5422C21.6646 12.5308 23.0289 14.5565 24.336 15.9436C25.2724 15.7743 26.0782 15.6879 26.7346 15.6879C27.8532 15.6879 28.531 15.9486 28.8074 16.4858C29.036 16.93 28.9424 17.4493 28.5289 18.0286C28.131 18.585 27.5824 18.8793 26.9432 18.8793C26.0746 18.8793 25.0632 18.3308 23.9353 17.2472C21.9089 17.6708 19.5424 18.4265 17.6296 19.2629C17.0324 20.53 16.4603 21.5508 15.9274 22.2993C15.1953 23.3243 14.5639 23.8029 13.9389 23.8029ZM15.8403 20.1415C14.3139 20.9993 13.6917 21.7043 13.6467 22.1015C13.6396 22.1672 13.6203 22.34 13.9546 22.5958C14.061 22.5622 14.6824 22.2786 15.8403 20.1415ZM25.581 16.9686C26.1632 17.4165 26.3053 17.6429 26.686 17.6429C26.8532 17.6429 27.3296 17.6358 27.5503 17.3279C27.6567 17.1786 27.6982 17.0829 27.7146 17.0315C27.6267 16.985 27.5103 16.8908 26.8753 16.8908C26.5146 16.8915 26.061 16.9072 25.581 16.9686ZM20.2453 12.2672C19.7346 14.0343 19.0603 15.9422 18.3353 17.67C19.8282 17.0908 21.451 16.585 22.9753 16.2272C22.011 15.1072 21.0474 13.7086 20.2453 12.2672ZM19.8117 6.2229C19.7417 6.24647 18.8617 7.4779 19.8803 8.52004C20.5582 7.00933 19.8424 6.2129 19.8117 6.2229Z" fill="#CC4B4C"/>
<path d="M34.3124 40H5.68807C5.11092 40 4.64307 39.5321 4.64307 38.955V27.8571H35.3574V38.955C35.3574 39.5321 34.8895 40 34.3124 40Z" fill="#CC4B4C"/>
<path d="M12.4182 37.8571H11.2461V30.66H13.3161C13.6218 30.66 13.9247 30.7085 14.224 30.8064C14.5232 30.9043 14.7918 31.0507 15.0297 31.2457C15.2675 31.4407 15.4597 31.6771 15.6061 31.9535C15.7525 32.23 15.8261 32.5407 15.8261 32.8864C15.8261 33.2514 15.764 33.5814 15.6404 33.8778C15.5168 34.1743 15.344 34.4235 15.1225 34.625C14.9011 34.8264 14.634 34.9828 14.3218 35.0935C14.0097 35.2043 13.664 35.2593 13.2868 35.2593H12.4175V37.8571H12.4182ZM12.4182 31.5485V34.4H13.4925C13.6354 34.4 13.7768 34.3757 13.9175 34.3264C14.0575 34.2778 14.1861 34.1978 14.3032 34.0871C14.4204 33.9764 14.5147 33.8221 14.5861 33.6235C14.6575 33.425 14.6932 33.1793 14.6932 32.8864C14.6932 32.7693 14.6768 32.6335 14.6447 32.4814C14.6118 32.3285 14.5454 32.1821 14.4447 32.0421C14.3432 31.9021 14.2018 31.785 14.0197 31.6907C13.8375 31.5964 13.5961 31.5493 13.2968 31.5493H12.4182V31.5485Z" fill="white"/>
<path d="M23.0138 34.0585C23.0138 34.6507 22.9503 35.1571 22.8231 35.5771C22.696 35.9971 22.5353 36.3485 22.3396 36.6321C22.1438 36.9157 21.9246 37.1385 21.6803 37.3014C21.436 37.4643 21.2003 37.5857 20.9724 37.6678C20.7446 37.7493 20.536 37.8014 20.3474 37.8243C20.1588 37.8457 20.0188 37.8571 19.9274 37.8571H17.2031V30.66H19.371C19.9767 30.66 20.5088 30.7564 20.9674 30.9478C21.426 31.1393 21.8074 31.3957 22.1103 31.7143C22.4131 32.0328 22.6388 32.3964 22.7888 32.8028C22.9388 33.21 23.0138 33.6285 23.0138 34.0585ZM19.5374 36.9978C20.3317 36.9978 20.9046 36.7443 21.256 36.2364C21.6074 35.7285 21.7831 34.9928 21.7831 34.0293C21.7831 33.73 21.7474 33.4335 21.676 33.1407C21.6038 32.8478 21.466 32.5828 21.261 32.345C21.056 32.1071 20.7774 31.915 20.426 31.7685C20.0746 31.6221 19.6188 31.5485 19.0588 31.5485H18.3753V36.9978H19.5374Z" fill="white"/>
<path d="M25.9048 31.5485V33.8143H28.9127V34.615H25.9048V37.8571H24.7134V30.66H29.2148V31.5485H25.9048Z" fill="white"/>
</svg>
