<svg width="40" height="40" viewBox="0 0 40 40" fill="none" xmlns="http://www.w3.org/2000/svg">
<path d="M1.97046 12.3008H38.0289V38.0292H1.97046V12.3008Z" fill="#E5E5E5"/>
<path d="M1.97046 4.94934H38.0289V12.3009H1.97046V4.94934Z" fill="#CC4B4C"/>
<path d="M18.834 1.97052H21.1658V7.92739H18.834V1.97052Z" fill="#737B7D"/>
<path d="M28.1411 1.97052H30.473V7.92739H28.1411V1.97052Z" fill="#737B7D"/>
<path d="M9.52686 1.97052H11.8587V7.92739H9.52686V1.97052Z" fill="#737B7D"/>
<path d="M8.64361 19.7909C9.72798 19.7909 10.607 18.9118 10.607 17.8275C10.607 16.7431 9.72798 15.864 8.64361 15.864C7.55923 15.864 6.68018 16.7431 6.68018 17.8275C6.68018 18.9118 7.55923 19.7909 8.64361 19.7909Z" fill="#737B7D"/>
<path d="M16.2144 19.7909C17.2988 19.7909 18.1779 18.9118 18.1779 17.8275C18.1779 16.7431 17.2988 15.864 16.2144 15.864C15.13 15.864 14.251 16.7431 14.251 17.8275C14.251 18.9118 15.13 19.7909 16.2144 19.7909Z" fill="#737B7D"/>
<path d="M23.7847 19.7909C24.8691 19.7909 25.7482 18.9118 25.7482 17.8275C25.7482 16.7431 24.8691 15.864 23.7847 15.864C22.7003 15.864 21.8213 16.7431 21.8213 17.8275C21.8213 18.9118 22.7003 19.7909 23.7847 19.7909Z" fill="#737B7D"/>
<path d="M31.3555 19.7909C32.4399 19.7909 33.319 18.9118 33.319 17.8275C33.319 16.7431 32.4399 15.864 31.3555 15.864C30.2712 15.864 29.3921 16.7431 29.3921 17.8275C29.3921 18.9118 30.2712 19.7909 31.3555 19.7909Z" fill="#737B7D"/>
<path d="M8.64361 27.1285C9.72798 27.1285 10.607 26.2494 10.607 25.165C10.607 24.0807 9.72798 23.2016 8.64361 23.2016C7.55923 23.2016 6.68018 24.0807 6.68018 25.165C6.68018 26.2494 7.55923 27.1285 8.64361 27.1285Z" fill="#737B7D"/>
<path d="M16.2144 27.1285C17.2988 27.1285 18.1779 26.2494 18.1779 25.165C18.1779 24.0807 17.2988 23.2016 16.2144 23.2016C15.13 23.2016 14.251 24.0807 14.251 25.165C14.251 26.2494 15.13 27.1285 16.2144 27.1285Z" fill="#737B7D"/>
<path d="M23.7847 27.1285C24.8691 27.1285 25.7482 26.2494 25.7482 25.165C25.7482 24.0807 24.8691 23.2016 23.7847 23.2016C22.7003 23.2016 21.8213 24.0807 21.8213 25.165C21.8213 26.2494 22.7003 27.1285 23.7847 27.1285Z" fill="#737B7D"/>
<path d="M31.3555 27.1285C32.4399 27.1285 33.319 26.2494 33.319 25.165C33.319 24.0807 32.4399 23.2016 31.3555 23.2016C30.2712 23.2016 29.3921 24.0807 29.3921 25.165C29.3921 26.2494 30.2712 27.1285 31.3555 27.1285Z" fill="#737B7D"/>
<path d="M8.64361 34.4662C9.72798 34.4662 10.607 33.5871 10.607 32.5027C10.607 31.4184 9.72798 30.5393 8.64361 30.5393C7.55923 30.5393 6.68018 31.4184 6.68018 32.5027C6.68018 33.5871 7.55923 34.4662 8.64361 34.4662Z" fill="#737B7D"/>
<path d="M16.2144 34.4662C17.2988 34.4662 18.1779 33.5871 18.1779 32.5027C18.1779 31.4184 17.2988 30.5393 16.2144 30.5393C15.13 30.5393 14.251 31.4184 14.251 32.5027C14.251 33.5871 15.13 34.4662 16.2144 34.4662Z" fill="#737B7D"/>
<path d="M23.7847 34.4662C24.8691 34.4662 25.7482 33.5871 25.7482 32.5027C25.7482 31.4184 24.8691 30.5393 23.7847 30.5393C22.7003 30.5393 21.8213 31.4184 21.8213 32.5027C21.8213 33.5871 22.7003 34.4662 23.7847 34.4662Z" fill="#737B7D"/>
<path d="M31.3555 34.4662C32.4399 34.4662 33.319 33.5871 33.319 32.5027C33.319 31.4184 32.4399 30.5393 31.3555 30.5393C30.2712 30.5393 29.3921 31.4184 29.3921 32.5027C29.3921 33.5871 30.2712 34.4662 31.3555 34.4662Z" fill="#737B7D"/>
</svg>
