<svg width="40" height="40" viewBox="0 0 40 40" fill="none" xmlns="http://www.w3.org/2000/svg">
<path d="M32.4138 39.9999H3.44824V2.75854H22.7586L32.4138 12.4137V39.9999Z" fill="#F5C145"/>
<path d="M36.5519 35.8621H7.58643V0H26.8968L36.5519 9.65517V35.8621Z" fill="#E5E5E5"/>
<path d="M26.8965 9.65517H36.5517L26.8965 0V9.65517Z" fill="#D9D7CA"/>
<path d="M13.1036 30.3446H11.7243C11.3435 30.3446 11.0347 30.0359 11.0347 29.655C11.0347 29.2741 11.3435 28.9653 11.7243 28.9653H13.1036C13.4845 28.9653 13.7933 29.2741 13.7933 29.655C13.7933 30.0359 13.4845 30.3446 13.1036 30.3446Z" fill="#F5C145"/>
<path d="M32.4137 30.3446H15.862C15.4812 30.3446 15.1724 30.0359 15.1724 29.655C15.1724 29.2741 15.4812 28.9653 15.862 28.9653H32.4137C32.7946 28.9653 33.1034 29.2741 33.1034 29.655C33.1034 30.0359 32.7946 30.3446 32.4137 30.3446Z" fill="#F5C145"/>
<path d="M13.1036 26.2067H11.7243C11.3435 26.2067 11.0347 25.8979 11.0347 25.517C11.0347 25.1362 11.3435 24.8274 11.7243 24.8274H13.1036C13.4845 24.8274 13.7933 25.1362 13.7933 25.517C13.7933 25.8979 13.4845 26.2067 13.1036 26.2067Z" fill="#F5C145"/>
<path d="M32.4137 26.2067H15.862C15.4812 26.2067 15.1724 25.8979 15.1724 25.517C15.1724 25.1362 15.4812 24.8274 15.862 24.8274H32.4137C32.7946 24.8274 33.1034 25.1362 33.1034 25.517C33.1034 25.8979 32.7946 26.2067 32.4137 26.2067Z" fill="#F5C145"/>
<path d="M13.1036 22.0687H11.7243C11.3435 22.0687 11.0347 21.76 11.0347 21.3791C11.0347 20.9982 11.3435 20.6895 11.7243 20.6895H13.1036C13.4845 20.6895 13.7933 20.9982 13.7933 21.3791C13.7933 21.76 13.4845 22.0687 13.1036 22.0687Z" fill="#F5C145"/>
<path d="M32.4137 22.0687H15.862C15.4812 22.0687 15.1724 21.76 15.1724 21.3791C15.1724 20.9982 15.4812 20.6895 15.862 20.6895H32.4137C32.7946 20.6895 33.1034 20.9982 33.1034 21.3791C33.1034 21.76 32.7946 22.0687 32.4137 22.0687Z" fill="#F5C145"/>
<path d="M13.1036 17.9308H11.7243C11.3435 17.9308 11.0347 17.622 11.0347 17.2412C11.0347 16.8603 11.3435 16.5515 11.7243 16.5515H13.1036C13.4845 16.5515 13.7933 16.8603 13.7933 17.2412C13.7933 17.622 13.4845 17.9308 13.1036 17.9308Z" fill="#F5C145"/>
<path d="M32.4137 17.9308H15.862C15.4812 17.9308 15.1724 17.622 15.1724 17.2412C15.1724 16.8603 15.4812 16.5515 15.862 16.5515H32.4137C32.7946 16.5515 33.1034 16.8603 33.1034 17.2412C33.1034 17.622 32.7946 17.9308 32.4137 17.9308Z" fill="#F5C145"/>
<path d="M13.1036 13.7929H11.7243C11.3435 13.7929 11.0347 13.4841 11.0347 13.1032C11.0347 12.7224 11.3435 12.4136 11.7243 12.4136H13.1036C13.4845 12.4136 13.7933 12.7224 13.7933 13.1032C13.7933 13.4841 13.4845 13.7929 13.1036 13.7929Z" fill="#F5C145"/>
<path d="M32.4137 13.7929H15.862C15.4812 13.7929 15.1724 13.4841 15.1724 13.1032C15.1724 12.7224 15.4812 12.4136 15.862 12.4136H32.4137C32.7946 12.4136 33.1034 12.7224 33.1034 13.1032C33.1034 13.4841 32.7946 13.7929 32.4137 13.7929Z" fill="#F5C145"/>
<path d="M11.7241 6.20679H15.8621V10.3447H11.7241V6.20679Z" fill="#F5C145"/>
</svg>
