<svg width="70" height="48" viewBox="0 0 70 48" fill="none" xmlns="http://www.w3.org/2000/svg">
<path d="M0 0H62.4C66.3765 0 69.6 3.2235 69.6 7.2V48H0V0Z" fill="#F5C145"/>
<path d="M12 21.5999H19.2C23.1765 21.5999 26.4 24.8234 26.4 28.7999V43.1999H4.80002V28.7999C4.80002 24.8234 8.02352 21.5999 12 21.5999Z" fill="white"/>
<path d="M15.6 21.6C20.2392 21.6 24 17.8392 24 13.2C24 8.56086 20.2392 4.80005 15.6 4.80005C10.9609 4.80005 7.20004 8.56086 7.20004 13.2C7.20004 17.8392 10.9609 21.6 15.6 21.6Z" fill="white"/>
<path d="M36.0001 12H38.4001V14.4H36.0001V12Z" fill="white" fill-opacity="0.72"/>
<path d="M40.8001 12H43.2001V14.4H40.8001V12Z" fill="white" fill-opacity="0.72"/>
<path d="M45.6002 12H48.0002V14.4H45.6002V12Z" fill="white" fill-opacity="0.72"/>
<path d="M50.4002 12H52.8002V14.4H50.4002V12Z" fill="white" fill-opacity="0.72"/>
<path d="M55.2 12H57.6V14.4H55.2V12Z" fill="white" fill-opacity="0.72"/>
<path d="M60 12H62.4V14.4H60V12Z" fill="white" fill-opacity="0.72"/>
<path d="M32.4001 25.2H66.0001V27.6H32.4001V25.2Z" fill="white" fill-opacity="0.72"/>
<path d="M32.4001 30H66.0001V32.4H32.4001V30Z" fill="white" fill-opacity="0.72"/>
<path d="M32.4001 34.8H66.0001V37.2H32.4001V34.8Z" fill="white" fill-opacity="0.72"/>
<path d="M32.4001 39.6001H66.0001V42.0001H32.4001V39.6001Z" fill="white" fill-opacity="0.72"/>
</svg>
