<svg width="40" height="40" viewBox="0 0 40 40" fill="none" xmlns="http://www.w3.org/2000/svg">
<path d="M4.82764 0H35.1725V40H4.82764V0Z" fill="#E5E5E5"/>
<path d="M7.58643 5.51724H32.414V13.7931H7.58643V5.51724Z" fill="#F5C145"/>
<path d="M26.207 0H30.345V2.75862H26.207V0Z" fill="#F5C145"/>
<path d="M28.2759 27.5862H32.4138V37.2414H28.2759V27.5862Z" fill="#F5C145"/>
<path d="M7.58643 19.3103H11.7244V23.4483H7.58643V19.3103Z" fill="#F5C145"/>
<path d="M14.4829 19.3103H18.6208V23.4483H14.4829V19.3103Z" fill="#F5C145"/>
<path d="M21.3794 19.3103H25.5173V23.4483H21.3794V19.3103Z" fill="#F5C145"/>
<path d="M7.58643 26.2069H11.7244V30.3448H7.58643V26.2069Z" fill="#F5C145"/>
<path d="M14.4829 26.2069H18.6208V30.3448H14.4829V26.2069Z" fill="#F5C145"/>
<path d="M21.3794 26.2069H25.5173V30.3448H21.3794V26.2069Z" fill="#F5C145"/>
<path d="M7.58643 33.1035H11.7244V37.2414H7.58643V33.1035Z" fill="#F5C145"/>
<path d="M14.4829 33.1035H18.6208V37.2414H14.4829V33.1035Z" fill="#F5C145"/>
<path d="M21.3794 33.1035H25.5173V37.2414H21.3794V33.1035Z" fill="#F5C145"/>
<path d="M11.7241 17.2414H7.58614C7.20528 17.2414 6.89648 16.9326 6.89648 16.5517C6.89648 16.1709 7.20528 15.8621 7.58614 15.8621H11.7241C12.1049 15.8621 12.4137 16.1709 12.4137 16.5517C12.4137 16.9326 12.1049 17.2414 11.7241 17.2414Z" fill="#F5C145"/>
<path d="M18.6206 17.2414H14.4826C14.1018 17.2414 13.793 16.9326 13.793 16.5517C13.793 16.1709 14.1018 15.8621 14.4826 15.8621H18.6206C19.0014 15.8621 19.3102 16.1709 19.3102 16.5517C19.3102 16.9326 19.0014 17.2414 18.6206 17.2414Z" fill="#F5C145"/>
<path d="M25.517 17.2414H21.3791C20.9982 17.2414 20.6895 16.9326 20.6895 16.5517C20.6895 16.1709 20.9982 15.8621 21.3791 15.8621H25.517C25.8979 15.8621 26.2067 16.1709 26.2067 16.5517C26.2067 16.9326 25.8979 17.2414 25.517 17.2414Z" fill="#F5C145"/>
<path d="M28.2759 16.5517H32.4138V19.3103H28.2759V16.5517Z" fill="#F5C145"/>
<path d="M28.2759 22.069H32.4138V24.8276H28.2759V22.069Z" fill="#F5C145"/>
<path d="M29.6553 8.96552H28.9657V8.27587C28.9657 7.89501 28.6569 7.58621 28.276 7.58621C27.8951 7.58621 27.5863 7.89501 27.5863 8.27587V8.96552H26.8967C26.5158 8.96552 26.207 9.27432 26.207 9.65518C26.207 10.036 26.5158 10.3448 26.8967 10.3448H27.5863V11.0345C27.5863 11.4154 27.8951 11.7241 28.276 11.7241C28.6569 11.7241 28.9657 11.4154 28.9657 11.0345V10.3448H29.6553C30.0362 10.3448 30.345 10.036 30.345 9.65518C30.345 9.27432 30.0362 8.96552 29.6553 8.96552Z" fill="#E5E5E5"/>
<path d="M8.96545 3.44828H7.58614C7.20528 3.44828 6.89648 3.13949 6.89648 2.75862C6.89648 2.37776 7.20528 2.06897 7.58614 2.06897H8.96545C9.34631 2.06897 9.6551 2.37776 9.6551 2.75862C9.6551 3.13949 9.34631 3.44828 8.96545 3.44828Z" fill="#F5C145"/>
</svg>
