<svg width="40" height="40" viewBox="0 0 40 40" fill="none" xmlns="http://www.w3.org/2000/svg">
<path d="M5.51709 0H34.4826V37.2414C34.4826 38.7649 33.2475 40 31.724 40H8.27571C6.75218 40 5.51709 38.7649 5.51709 37.2414V0Z" fill="#E5E5E5"/>
<path d="M5.51709 0H34.4826V6.89655H5.51709V0Z" fill="#F5C145"/>
<path d="M9.65527 11.0345H15.1725V15.1724H9.65527V11.0345Z" fill="white"/>
<path d="M9.65527 24.8276H15.1725V28.9655H9.65527V24.8276Z" fill="white"/>
<path d="M9.65527 31.7242H15.1725V35.8621H9.65527V31.7242Z" fill="white"/>
<path d="M10.3447 22.7586C10.2825 22.7586 10.2206 22.7502 10.1606 22.7338C9.9394 22.6723 9.76336 22.5048 9.69095 22.2869L9.00129 20.218C8.88095 19.8561 9.07672 19.4652 9.43853 19.3449C9.80035 19.2245 10.1913 19.4203 10.3116 19.7821L10.6778 20.8773L14.7268 17.4076C15.0066 17.1492 15.4429 17.1664 15.7014 17.4461C15.9598 17.7259 15.9426 18.1623 15.6628 18.4207C15.6501 18.4324 15.637 18.4437 15.6234 18.4545L10.7958 22.5924C10.6704 22.7005 10.5103 22.7596 10.3447 22.7586Z" fill="#F5C145"/>
<path d="M18.6206 10.3448H31.0344V11.7242H18.6206V10.3448Z" fill="white"/>
<path d="M18.6206 13.1035H31.0344V14.4828H18.6206V13.1035Z" fill="white"/>
<path d="M18.6206 17.2414H31.0344V18.6207H18.6206V17.2414Z" fill="white"/>
<path d="M18.6206 20H31.0344V21.3793H18.6206V20Z" fill="white"/>
<path d="M18.6206 24.1379H31.0344V25.5173H18.6206V24.1379Z" fill="white"/>
<path d="M18.6206 26.8966H31.0344V28.2759H18.6206V26.8966Z" fill="white"/>
<path d="M18.6206 31.0345H31.0344V32.4138H18.6206V31.0345Z" fill="white"/>
<path d="M18.6206 33.7931H31.0344V35.1724H18.6206V33.7931Z" fill="white"/>
<path d="M13.1033 4.82758H9.65499C9.27413 4.82758 8.96533 4.51879 8.96533 4.13793C8.96533 3.75707 9.27413 3.44827 9.65499 3.44827H13.1033C13.4841 3.44827 13.7929 3.75707 13.7929 4.13793C13.7929 4.51879 13.4841 4.82758 13.1033 4.82758Z" fill="white"/>
<path d="M30.3445 4.82758H26.8962C26.5153 4.82758 26.2065 4.51879 26.2065 4.13793C26.2065 3.75707 26.5153 3.44827 26.8962 3.44827H30.3445C30.7253 3.44827 31.0341 3.75707 31.0341 4.13793C31.0341 4.51879 30.7253 4.82758 30.3445 4.82758Z" fill="white"/>
</svg>
