<svg width="42" height="64" viewBox="0 0 42 64" fill="none" xmlns="http://www.w3.org/2000/svg">
<path d="M2.2066 59.5862H39.7238V60.6896C39.7238 62.5179 38.2418 64 36.4135 64H5.51695C3.68867 64 2.2066 62.5179 2.2066 60.6896V59.5862Z" fill="#F5C145"/>
<path d="M26.9352 48.5517H14.9959L12.1655 8.82759C11.7605 3.86207 15.8146 0 20.9655 0C26.112 0 30.1661 3.86207 29.7611 8.82759L26.9352 48.5517Z" fill="#F5C145"/>
<path d="M0 48.5518H41.931V59.5862H0V48.5518Z" fill="#F5C145" fill-opacity="0.2"/>
<path d="M20.9652 13.2416C23.4029 13.2416 25.379 11.2655 25.379 8.82786C25.379 6.39018 23.4029 4.41406 20.9652 4.41406C18.5275 4.41406 16.5514 6.39018 16.5514 8.82786C16.5514 11.2655 18.5275 13.2416 20.9652 13.2416Z" fill="white"/>
</svg>
